<?xml version="1.0" encoding="utf-8"?>
<!-- Generator: Adobe Illustrator 16.0.0, SVG Export Plug-In . SVG Version: 6.00 Build 0)  -->
<!DOCTYPE svg PUBLIC "-//W3C//DTD SVG 1.1//EN" "http://www.w3.org/Graphics/SVG/1.1/DTD/svg11.dtd">
<svg version="1.1" id="圖層_1" xmlns="http://www.w3.org/2000/svg" xmlns:xlink="http://www.w3.org/1999/xlink" x="0px" y="0px"
	 width="16px" height="16px" viewBox="0 0 16 16" enable-background="new 0 0 16 16" xml:space="preserve">
<path fill="#FFFFFF" d="M8,15c0.276,0,0.5-0.224,0.5-0.5V2.707l3.146,3.147c0.195,0.195,0.512,0.195,0.707,0s0.195-0.513,0-0.708
	l-4-4C8.159,0.951,7.842,0.95,7.647,1.145c0,0,0,0-0.001,0.001l-4,4c-0.195,0.195-0.195,0.513,0,0.708s0.513,0.195,0.708,0
	L7.5,2.707V14.5C7.5,14.776,7.724,15,8,15z"/>
</svg>
