<?xml version="1.0" encoding="UTF-8"?>
<svg id="_圖層_1" data-name="圖層 1" xmlns="http://www.w3.org/2000/svg" version="1.1" viewBox="0 0 1920 244">
  <defs>
    <style>
      .cls-1 {
        fill: #9fc265;
      }

      .cls-1, .cls-2 {
        stroke-width: 0px;
      }

      .cls-2 {
        fill: #599e9a;
      }
    </style>
  </defs>
  <path class="cls-2" d="M729.8,114.7C314.8,95.8,70.3,100.5,0,105.2v138.8h1920V105.2c-223.8,11-775.2,28.4-1190.2,9.5Z"/>
  <path class="cls-1" d="M1127.6,154.7C495.3,212.2,270.2,150.3,0,125v119h1920v-112.4c-158.5-7.7-465.5-6.6-792.4,23.1Z"/>
  <path class="cls-1" d="M1797.7,69.1c-7.7,3.3-24.5,5.7-29.7-10.6-5.2-16.4.8-23.5,4.4-25.1-4.2-4.2-10.1-14.5,0-21.9,10.1-7.4,16.9-3.1,19.1,0,2.3-4.9,10.2-14,22.7-10.9,12.5,3.1,15.1,11.8,14.8,15.8,5.9-.7,17.7.9,18.1,12.9.4,12-9.5,14.2-14.6,13.9,5.9,4,16,13.7,8.9,20.5-7.1,6.8-19.1,4.3-24.3,2.2,1.4,3.7,2.7,10.9-2.9,10.6-2.5-.1-4.9.3-7.2.3,2.9,15.2,9.9,43,13.7,57.2h-29.1c2.9,0,5.8-33.9,7.6-61.3-.5-1-1-2.2-1.3-3.6Z"/>
  <path class="cls-1" d="M1695.3,83.7c-6.5,1.5-11.5.3-15.3-6-4.7-7.8-8.6-13.3,0-19.4,8.6-6.1-17.2,3.6,0-23.4,8.6-13.5,23.9-7.2,20.1,0,5.5-3,18.3-12.4,25.2-5.2,9.3,9.7,2.9,20.8,0,24.1,5.3.5,14.5,12.2,6.5,19.4-7.1,6.3-17.4,8.2-24.6,8.8.8,13.7,4.4,38.5,6.7,52h-23.7c4.3-3.9,5.2-30.9,5.1-50.3Z"/>
</svg>