<?xml version="1.0" encoding="utf-8"?>
<!-- Generator: Adobe Illustrator 16.0.0, SVG Export Plug-In . SVG Version: 6.00 Build 0)  -->
<!DOCTYPE svg PUBLIC "-//W3C//DTD SVG 1.1//EN" "http://www.w3.org/Graphics/SVG/1.1/DTD/svg11.dtd">
<svg version="1.1" id="圖層_1" xmlns="http://www.w3.org/2000/svg" xmlns:xlink="http://www.w3.org/1999/xlink" x="0px" y="0px"
	 width="16px" height="16px" viewBox="0 0 16 16" enable-background="new 0 0 16 16" xml:space="preserve">
<path fill="#FFFFFF" d="M8,1c0.276,0,0.5,0.224,0.5,0.5v11.793l3.146-3.146c0.195-0.195,0.512-0.195,0.707,0s0.195,0.512,0,0.707
	l-4,4c-0.195,0.195-0.512,0.196-0.707,0.002c0-0.001,0-0.001-0.001-0.002l-4-4c-0.195-0.195-0.195-0.512,0-0.707
	s0.513-0.195,0.708,0L7.5,13.293V1.5C7.5,1.224,7.724,1,8,1z"/>
</svg>
