<?xml version="1.0" encoding="UTF-8"?>
<svg id="_圖層_2" data-name=" 圖層 2" xmlns="http://www.w3.org/2000/svg" version="1.1" viewBox="0 0 329.4 329.4">
  <defs>
    <style>
      .cls-1 {
        fill: #fff;
        stroke-width: 0px;
      }
    </style>
  </defs>
  <path class="cls-1" d="M266.5,159.5l-1-1c-.6-.9-1.3-1.7-2.1-2.5l-49.5-49.5c-.8-.8-1.7-1.5-2.5-2.1L129.4,22.4c-3-3-9.2-1.6-13.9,3.1l-49.5,49.5c-4.7,4.7-6.1,10.9-3.1,13.9l75.8,75.8-75.8,75.8c-3,3-1.6,9.2,3.1,13.9l49.5,49.5c4.7,4.7,10.9,6.1,13.9,3.1l82-82c.9-.6,1.7-1.3,2.5-2.1l49.5-49.5c.8-.8,1.5-1.7,2.1-2.5l1-1c1.3-1.3,1.7-3.1,1.5-5.2.2-2.1-.2-3.9-1.5-5.2h0Z"/>
</svg>