<svg width="164" height="137" viewBox="0 0 164 137" fill="none" xmlns="http://www.w3.org/2000/svg">
<path fill-rule="evenodd" clip-rule="evenodd" d="M31.2583 1.8263C30.3086 0.670099 28.891 0 27.3947 0H5.00206C1.79985 0 -0.576984 2.96814 0.122965 6.09291L24.3037 114.043C25.25 118.267 30.7529 119.375 33.2594 115.845L73.5455 59.1157C74.8517 57.2764 74.7644 54.7903 73.3325 53.0471L31.2583 1.8263ZM129.259 2.03551C130.202 0.755633 131.697 0 133.286 0H158.194C161.338 0 163.702 2.86681 163.102 5.95292L138.544 132.453C138.088 134.803 136.03 136.5 133.635 136.5H123.207C121.662 136.5 120.204 135.786 119.257 134.566L96.6598 105.45C95.495 103.949 95.2814 101.918 96.1085 100.208L105.15 81.5112C107.741 76.1544 100.482 71.564 96.7527 76.2008L49.7592 134.634C48.8102 135.814 47.3773 136.5 45.8629 136.5H40.1485C36.0486 136.5 33.6913 131.837 36.1221 128.536L129.259 2.03551Z" fill="#FBFBFB"/>
</svg>
