<svg width="688" height="137" viewBox="0 0 688 137" fill="none" xmlns="http://www.w3.org/2000/svg">
<path fill-rule="evenodd" clip-rule="evenodd" d="M31.2583 1.8263C30.3086 0.670099 28.891 0 27.3947 0H5.00206C1.79985 0 -0.576984 2.96814 0.122965 6.09291L24.3037 114.043C25.25 118.267 30.7529 119.375 33.2594 115.845L73.5455 59.1157C74.8517 57.2764 74.7644 54.7903 73.3325 53.0471L31.2583 1.8263ZM129.259 2.03551C130.202 0.755633 131.697 0 133.286 0H158.194C161.338 0 163.702 2.86681 163.102 5.95292L138.544 132.453C138.088 134.803 136.03 136.5 133.635 136.5H123.207C121.662 136.5 120.204 135.786 119.257 134.566L96.6598 105.45C95.495 103.949 95.2814 101.918 96.1085 100.208L105.15 81.5112C107.741 76.1544 100.482 71.564 96.7527 76.2008L49.7592 134.634C48.8102 135.814 47.3773 136.5 45.8629 136.5H40.1485C36.0486 136.5 33.6913 131.837 36.1221 128.536L129.259 2.03551Z" fill="#FBFBFB"/>
<path d="M263.807 11.9506H278.523C277.437 60.5489 284.795 109.385 293.721 109.385C295.772 109.385 296.978 103.206 297.461 89.1851C300.476 92.3933 305.181 95.7203 308.92 97.265C306.869 118.297 302.527 123.525 292.153 123.525C269.235 123.525 264.048 65.8959 263.807 11.9506ZM223.518 95.9579L229.911 86.2145C239.44 91.3239 252.347 99.1661 258.378 104.87L251.623 115.92C245.834 109.979 233.289 101.543 223.518 95.9579ZM220.141 47.2408H261.515V58.1725H220.141V47.2408ZM218.452 66.0147H264.168V77.184H218.452V66.0147ZM231.6 55.5584L244.024 57.3407C239.32 72.0747 233.047 89.5415 227.981 101.543L217.849 96.0768C222.191 85.6204 227.981 68.51 231.6 55.5584ZM289.379 49.4984L303.13 51.5184C296.616 84.4322 283.71 108.672 261.515 123.406C259.585 120.911 254.277 115.564 251.382 113.187C272.612 100.83 284.313 78.8475 289.379 49.4984ZM280.211 19.0799L288.293 11C293.721 13.7329 300.718 18.0105 304.336 21.2187L295.772 30.1304C292.515 26.8034 285.64 22.0505 280.211 19.0799ZM210.732 28.1104H306.025V40.9432H210.732V28.1104ZM203.132 28.1104H216.522V62.5689C216.522 80.3922 214.712 106.652 203.977 123.049C201.685 120.554 196.016 116.039 193 114.494C202.288 99.6414 203.132 78.3722 203.132 62.5689V28.1104ZM247.643 72.0747H259.464C256.931 93.938 250.779 113.187 222.553 123.525C221.105 120.435 217.969 115.92 215.316 113.544C240.888 105.464 245.472 89.4227 247.643 72.0747Z" fill="#FBFBFB"/>
<path d="M367.061 62.8065C377.194 87.7592 398.785 104.038 432.801 109.979C429.545 112.95 425.443 119.128 423.393 123.049C387.929 115.326 366.94 96.6709 354.396 66.49L367.061 62.8065ZM403.972 55.6772H406.747L409.4 55.0831L419.291 59.2419C409.642 94.7697 385.758 113.544 354.396 123.287C352.586 119.604 349.088 114.138 346.193 111.167C374.178 104.038 396.493 86.2145 403.972 58.1725V55.6772ZM324.239 29.5363H429.545V43.3197H324.239V29.5363ZM358.376 55.6772H405.42V69.4606H354.275L358.376 55.6772ZM354.396 11.8318H369.474C368.509 30.4869 366.699 87.9968 331.959 119.128C328.944 115.326 324.36 111.761 319.414 108.91C353.913 81.224 353.672 26.3281 354.396 11.8318Z" fill="#FBFBFB"/>
<path d="M464.888 22.8822H479.001V123.287H464.888V22.8822ZM446.553 45.2208H494.923V58.5289H446.553V45.2208ZM465.732 50.5678L474.176 54.2513C469.592 71.2429 461.028 92.3933 451.739 104.157C450.413 99.9979 447.276 94.0568 444.984 90.4921C453.428 80.9863 461.872 63.7571 465.732 50.5678ZM486.479 12.9012L494.561 24.5457C482.016 29.061 465.491 32.0316 451.378 33.6951C450.774 30.4869 448.965 25.734 447.518 22.6446C461.269 20.6246 476.467 16.9411 486.479 12.9012ZM478.639 59.123C481.654 61.9748 492.269 73.857 494.682 76.8276L486.238 87.9968C483.464 81.9369 475.985 69.9359 472.366 64.8265L478.639 59.123ZM531.713 11.7129H545.947V123.287H531.713V11.7129ZM492.872 88.3533L558.01 77.3028L560.181 90.7298L495.044 102.018L492.872 88.3533ZM500.713 27.041L510.122 18.9611C516.756 23.8328 525.079 30.9622 528.818 36.0715L518.686 44.9832C515.309 39.8738 507.347 32.2692 500.713 27.041ZM496.25 58.2913L505.417 50.0925C512.414 54.9643 521.34 62.2124 525.441 67.4406L515.55 76.5899C511.69 71.3617 503.246 63.5195 496.25 58.2913Z" fill="#FBFBFB"/>
<path d="M615.186 28.8233H682.615V41.8938H615.186V28.8233ZM617.357 56.1525H668.863V69.1041H617.357V56.1525ZM641.24 11.8318H655.474V63.163H641.24V11.8318ZM633.038 66.49C641.723 88.4721 660.058 104.632 687.319 111.286C684.183 114.138 680.082 119.841 678.152 123.525C649.202 115.207 630.987 96.9085 620.011 70.1735L633.038 66.49ZM667.416 56.1525H670.07L672.603 55.6772L681.891 59.3607C672.241 94.6509 647.995 113.9 615.909 123.168C614.462 119.366 610.964 113.306 608.189 110.335C637.38 103.563 660.058 86.0957 667.416 58.4101V56.1525ZM572.002 72.1935C582.617 70.0547 598.178 66.3712 612.894 62.6877L614.703 75.7582C601.314 79.3228 586.959 83.0063 575.741 85.858L572.002 72.1935ZM573.57 34.408H613.617V47.7161H573.57V34.408ZM587.442 11.8318H601.676V107.721C601.676 114.494 600.469 118.059 596.368 120.198C592.267 122.336 586.477 122.812 577.792 122.812C577.43 119.128 575.5 113.425 573.811 109.741C578.516 109.86 583.582 109.86 585.15 109.86C586.839 109.86 587.442 109.266 587.442 107.603V11.8318Z" fill="#FBFBFB"/>
</svg>
