<svg xmlns="http://www.w3.org/2000/svg" width="17.941" height="15.491" viewBox="0 0 17.941 15.491"><defs><style>.a{fill:#353b4b;}</style></defs><g transform="translate(0 0)"><path class="a" d="M231.147,160.065l2.568,2.568.012-.135a2.448,2.448,0,0,0-2.446-2.446Z" transform="translate(-222.313 -155.161)"/><path class="a" d="M152.9,66.092a4.078,4.078,0,0,1,4.076,4.076,4.013,4.013,0,0,1-.289,1.488l2.385,2.385a9.682,9.682,0,0,0,2.8-3.873,9.648,9.648,0,0,0-8.972-6.115,9.535,9.535,0,0,0-3.249.571l1.761,1.757A4.1,4.1,0,0,1,152.9,66.092Z" transform="translate(-143.936 -62.831)"/><path class="a" d="M.815,33.093l1.859,1.859.371.371A9.657,9.657,0,0,0,0,39.391a9.631,9.631,0,0,0,12.543,5.426l.347.347,2.377,2.381,1.039-1.035L1.855,32.053Zm4.509,4.5,1.26,1.26a2.584,2.584,0,0,0-.061.534,2.448,2.448,0,0,0,2.446,2.446,2.513,2.513,0,0,0,.53-.061l1.26,1.26a4.011,4.011,0,0,1-1.79.432A4.05,4.05,0,0,1,5.324,37.6Z" transform="translate(0 -32.053)"/></g></svg>