<svg xmlns="http://www.w3.org/2000/svg" width="16.552" height="12.408" viewBox="0 0 16.552 12.408"><defs><style>.a{fill:#353b4b;}</style></defs><path class="a" d="M428.5,310.875a7.835,7.835,0,0,1,1.65.156,8.742,8.742,0,0,1,2.526.92,9.786,9.786,0,0,1,1.6,1.1,10.441,10.441,0,0,1,1.136,1.105,6.848,6.848,0,0,1,1.008,1.357,3.35,3.35,0,0,1,.355,1.337,3.463,3.463,0,0,1-.405,1.886,5.621,5.621,0,0,1-.6.839,10.773,10.773,0,0,1-1.167,1.239,9.776,9.776,0,0,1-2.369,1.608,8.732,8.732,0,0,1-1.8.634,7.947,7.947,0,0,1-1.332.2c-.235.013-.47.038-.706.029q-.425-.018-.847-.062a8.3,8.3,0,0,1-1.357-.266,8.523,8.523,0,0,1-1.322-.495,9.722,9.722,0,0,1-2.116-1.354,11.35,11.35,0,0,1-1.778-1.877,3.432,3.432,0,0,1-.582-1.088,3.542,3.542,0,0,1,.264-2.744,5.192,5.192,0,0,1,.5-.7,10.927,10.927,0,0,1,1.026-1.136,10.277,10.277,0,0,1,1.951-1.481,8.928,8.928,0,0,1,1.723-.777,8.163,8.163,0,0,1,1.345-.322A7.867,7.867,0,0,1,428.5,310.875Zm.091,10.088a2.418,2.418,0,0,0,.591-.048,3.824,3.824,0,0,0,2.643-1.884,4.031,4.031,0,0,0,.5-1.559,3.961,3.961,0,0,0-.056-1.18,3.729,3.729,0,0,0-.425-1.151,3.788,3.788,0,0,0-1.54-1.517,3.658,3.658,0,0,0-1.5-.434,3.772,3.772,0,0,0-1.421.165,3.727,3.727,0,0,0-1.772,1.209,3.846,3.846,0,0,0-.89,2.3,3.938,3.938,0,0,0,.192,1.454,3.811,3.811,0,0,0,1.318,1.866A3.661,3.661,0,0,0,428.587,320.963Z" transform="translate(-420.231 -310.874)"/><path class="a" d="M432.525,316.744a2.712,2.712,0,0,1,2,.783,2.861,2.861,0,0,1-.054,4.147,2.693,2.693,0,0,1-1.472.7,2.656,2.656,0,0,1-2.132-.6,2.737,2.737,0,0,1-.97-1.594,2.787,2.787,0,0,1,.461-2.265,2.715,2.715,0,0,1,1.609-1.1A2,2,0,0,1,432.525,316.744Z" transform="translate(-424.318 -313.373)"/></svg>