<svg width="25" height="25" viewBox="0 0 22 21" stroke="#008BF1" xmlns="http://www.w3.org/2000/svg">
<g>
	<path class="st0" d="M14.5,7c-0.6,0.2-1.7,0.2-3.2,0c0,0.5-0.1,1.1-0.4,1.9c-0.4,0.8-0.8,1.4-1.3,1.9c-0.5,0.5-0.9,0.9-1.4,1.2
		c-0.3,0.2-0.5,0.4-0.8,0.6c0.5,0.9,1,1.8,1.7,2.7c0.7,0.9,1.5,1.8,2.5,2.7c0.1,0.1,0.1,0.1,0,0.2c0,0.1-0.1,0.1-0.2,0.1
		c0,0-0.1,0-0.2,0c-0.3-0.2-0.7-0.4-1-0.6c-0.4-0.3-0.8-0.7-1.1-1.1c-0.6-0.7-1.2-1.5-1.9-2.5c-0.2-0.4-0.4-0.7-0.6-1.1
		c-0.5,0.3-1,0.6-1.5,0.8c-0.8,0.3-1.4,0.5-1.9,0.6c-0.1,0-0.2,0-0.2,0c-0.1,0-0.1-0.1-0.1-0.1c0,0,0-0.1,0-0.2
		c0-0.1,0.1-0.1,0.2-0.2c1.1-0.4,2.2-0.9,3.2-1.5c-0.3-0.6-0.6-1.2-0.8-1.7C5.3,10.1,5,9.5,4.8,8.9c-0.1-0.1-0.1-0.3,0-0.4
		c0-0.1,0.1-0.1,0.2-0.2c0.1,0,0.2,0,0.3,0c0.1,0,0.1,0,0.1,0.1c0,0,0.1,0.1,0.2,0.2c0,0.1,0.1,0.3,0.1,0.5c0.2,0.5,0.4,1,0.6,1.5
		C6.5,11,6.8,11.6,7,12.1c0.2-0.1,0.4-0.3,0.5-0.4c0.5-0.4,1-0.8,1.5-1.3C9.4,10,9.7,9.6,9.9,9.1c0.3-0.7,0.5-1.4,0.5-2
		c0,0,0-0.1,0-0.2c-0.3,0-0.7-0.1-1-0.1C8,6.6,6.7,6.4,5.4,6.1C5.1,6.1,4.8,6,4.7,5.9C4.5,5.9,4.4,5.8,4.3,5.8
		C4.1,5.7,4.1,5.5,4.2,5.3c0-0.1,0.2-0.1,0.4-0.1c0.1,0,0.3,0,0.4,0.1C6.5,5.5,8,5.8,9.5,6c2.1,0.3,3.8,0.5,5.1,0.5
		c0.1,0,0.1,0.1,0.2,0.2c0,0,0,0.1,0,0.1C14.7,6.9,14.6,7,14.5,7z M9.1,2.7c0,0,0.1-0.1,0.2-0.1c0.2-0.1,0.3-0.1,0.5,0
		c0,0.1,0,0.1,0.2,0.2c0.4,0.3,1.1,0.9,2.2,1.7c0.1,0,0.1,0.1,0,0.2c-0.1,0.1-0.1,0.2-0.3,0.2c-0.1,0-0.2,0-0.3-0.1
		c-0.8-0.4-1.6-1-2.4-1.7C9,3,9,2.9,9.1,2.7z"/>
</g>
<g>
	<g>
		<path class="st0" d="M19,21.2c-0.1,0-0.3-0.2-0.4-0.5c-0.2-0.3-0.2-0.6-0.2-0.7c0-0.1,0-0.1,0.1-0.2c-0.1-0.3-0.2-0.8-0.4-1.5
			c-0.8-0.2-1.7-0.3-2.7-0.3c-0.5,0-1.2,0.1-2.1,0.1C13,18.9,13,19.5,13,19.9c0,0.2,0,0.3,0,0.5c-0.1,0.2-0.2,0.3-0.4,0.3
			c-0.4,0-0.5-0.3-0.5-0.8c0-0.2,0.1-0.5,0.1-0.9c0-0.2,0.1-0.5,0.2-1c-0.3,0.1-0.8,0.1-1.2,0.2c-0.3,0-0.4-0.1-0.4-0.4
			c0-0.3,0.2-0.4,0.5-0.5c0.2,0,0.6-0.1,1.3-0.2c0.4-1.8,1.2-4,2.2-6.6c0.3-0.7,0.5-1,0.7-1c0.3,0,0.5,0.3,0.8,1
			c1.5,3.6,2.6,6.8,3.2,9.7c0.1,0.3,0.1,0.5,0.1,0.6C19.5,21,19.3,21.2,19,21.2z M17,14.9c-0.6-1.6-1.1-3-1.6-4
			c-0.8,2.1-1.5,4.1-2,6.2c1-0.1,1.6-0.1,2-0.1c0.7,0,1.5,0.1,2.3,0.2C17.5,16.4,17.2,15.6,17,14.9z"/>
	</g>
</g>
</svg>