<svg width="22" height="20" viewBox="0 0 22 20" fill="none" xmlns="http://www.w3.org/2000/svg">
<path d="M8.2988 0.794186C8.03959 1.65583 7.59307 2.70346 7 3L8 4.5H13C13.6667 4 14.9 3 14.5 3C14.1783 3 13.6194 1.70619 13.2395 0.679496C13.0901 0.275811 12.7097 0 12.2792 0H9.3198C8.84312 0 8.43613 0.337714 8.2988 0.794186Z" fill="#5DE4FF"/>
<circle cx="11" cy="10" r="6" stroke="#5DE4FF" stroke-width="4"/>
<path d="M8.2988 18.7058C8.03959 17.8442 7.59307 16.7965 7 16.5L8 15H13C13.6667 15.5 14.9 16.5 14.5 16.5C14.1783 16.5 13.6194 17.7938 13.2395 18.8205C13.0901 19.2242 12.7097 19.5 12.2792 19.5H9.3198C8.84312 19.5 8.43613 19.1623 8.2988 18.7058Z" fill="#5DE4FF"/>
<path d="M17.874 16.2876C16.9938 16.1008 15.8605 15.9888 15.3154 16.3664L14.4806 14.7685L16.8837 10.3839C17.6426 10.0396 19.1123 9.43863 18.9201 9.7894C18.7654 10.0715 19.6314 11.1835 20.3491 12.0101C20.6314 12.3351 20.6904 12.8013 20.4835 13.1787L19.0611 15.7739C18.832 16.1919 18.3403 16.3865 17.874 16.2876Z" fill="#5DE4FF"/>
<path d="M17.874 3.52066C16.9938 3.70747 15.8605 3.81943 15.3154 3.44187L14.4806 5.03973L16.8837 9.42437C17.6426 9.76867 19.1123 10.3696 18.9201 10.0188C18.7654 9.7367 19.6314 8.62473 20.3491 7.79816C20.6314 7.47316 20.6904 7.00697 20.4835 6.62951L19.0611 4.0343C18.832 3.61629 18.3403 3.42169 17.874 3.52066Z" fill="#5DE4FF"/>
<path d="M3.71442 3.52066C4.59461 3.70747 5.72791 3.81943 6.27299 3.44187L7.10776 5.03973L4.70465 9.42437C3.94577 9.76867 2.47607 10.3696 2.66832 10.0188C2.82295 9.7367 1.957 8.62473 1.23924 7.79816C0.957025 7.47316 0.898014 7.00697 1.10489 6.62951L2.52726 4.0343C2.75637 3.61629 3.24813 3.42169 3.71442 3.52066Z" fill="#5DE4FF"/>
<path d="M3.71442 16.2876C4.17535 16.1897 4.70569 16.1124 5.18462 16.1152C5.78611 16.1187 6.519 15.8955 6.79752 15.3623L6.85995 15.2428C7.01477 14.9465 7.01124 14.5924 6.85054 14.2992L4.86486 10.6762C4.76086 10.4864 4.59854 10.3349 4.40003 10.2488C3.61243 9.9073 2.49949 9.48135 2.66832 9.7894C2.82295 10.0715 1.957 11.1835 1.23924 12.0101C0.957025 12.3351 0.898014 12.8013 1.10489 13.1787L2.52726 15.7739C2.75637 16.1919 3.24813 16.3865 3.71442 16.2876Z" fill="#5DE4FF"/>
</svg>
