<?xml version="1.0" encoding="UTF-8"?>
<svg id="_圖層_2" data-name="圖層 2" xmlns="http://www.w3.org/2000/svg" viewBox="0 0 329.44 329.44">
  <defs>
    <style>
      .cls-1 {
        fill: #fff;
        stroke-width: 0px;
      }
    </style>
  </defs>
  <g id="_圖層_1-2" data-name="圖層 1">
    <path class="cls-1" d="M226.95,164.72l98.99-98.99c4.67-4.67,4.67-12.3,0-16.97L280.69,3.5c-4.67-4.67-12.3-4.67-16.97,0l-98.99,98.99L65.73,3.5c-4.67-4.67-12.3-4.67-16.97,0L3.5,48.76c-4.67,4.67-4.67,12.3,0,16.97l98.99,98.99L3.5,263.72c-4.67,4.67-4.67,12.3,0,16.97l45.25,45.25c4.67,4.67,12.3,4.67,16.97,0l98.99-98.99,98.99,98.99c4.67,4.67,12.3,4.67,16.97,0l45.25-45.25c4.67-4.67,4.67-12.3,0-16.97l-98.99-98.99Z"/>
  </g>
</svg>