<?xml version="1.0" encoding="UTF-8"?>
<svg id="_圖層_2" data-name=" 圖層 2" xmlns="http://www.w3.org/2000/svg" version="1.1" viewBox="0 0 329.4 329.4">
  <defs>
    <style>
      .cls-1 {
        fill: #fff;
        stroke-width: 0px;
      }
    </style>
  </defs>
  <path class="cls-1" d="M12,0h304.2c6.6,0,12,4.3,12,9.6v55.9c0,5.3-5.4,9.6-12,9.6H12c-6.6,0-12-4.3-12-9.6V9.6C0,4.3,5.4,0,12,0Z"/>
  <path class="cls-1" d="M12.6,127.2h304.2c6.6,0,12,4.3,12,9.6v55.9c0,5.3-5.4,9.6-12,9.6H12.6c-6.6,0-12-4.3-12-9.6v-55.9c0-5.3,5.4-9.6,12-9.6Z"/>
  <path class="cls-1" d="M12.6,254.3h304.2c6.6,0,12,4.3,12,9.6v55.9c0,5.3-5.4,9.6-12,9.6H12.6c-6.6,0-12-4.3-12-9.6v-55.9c0-5.3,5.4-9.6,12-9.6Z"/>
</svg>