<?xml version="1.0" encoding="UTF-8"?>
<svg id="_圖層_1" data-name=" 圖層 1" xmlns="http://www.w3.org/2000/svg" version="1.1" viewBox="0 0 20 20">
  <defs>
    <style>
      .cls-1 {
        fill: #fff;
        stroke-width: 0px;
      }
    </style>
  </defs>
  <g id="_圖層_1-2" data-name=" 圖層 1-2">
    <path class="cls-1" d="M1.4,8.1L8.2.8c1.4-1.5,3-.6,3.6,0,1.5,1.2,4.5,5,7.3,7.3,2.2,2.9,0,3.6-1.4,3.6v6.3c0,1.1-1.2,1.7-1.8,1.8h-3.2c-.7,0-.9-.6-.9-.9v-4.5c0-.4-.6-.8-.9-.9h-1.8c-.7,0-.9.9-.9,1.4v4.1c0,.4-.6.8-.9.9-.5.3-1.6,0-2.7,0-2.2,0-2.4-1.2-2.3-1.8v-6.3c-3.6-.4-2.1-2.6-.9-3.6Z"/>
  </g>
</svg>