<?xml version="1.0" encoding="UTF-8"?>
<svg id="_圖層_2" data-name=" 圖層 2" xmlns="http://www.w3.org/2000/svg" version="1.1" viewBox="0 0 329.4 329.4">
  <defs>
    <style>
      .cls-1 {
        fill: #fff;
        stroke-width: 0px;
      }
    </style>
  </defs>
  <path class="cls-1" d="M328.6,168.2v-.2c0-1.9-.7-3.8-2.1-5.2l-.3-.3h0l-33.2-33.2h0l-71.9-71.9c-3-3-7.9-2.8-11.1.3l-33.2,33.2c-3.1,3.1-3.3,8.1-.3,11.1l34.7,34.7h-91.2c-5,0-9,3.6-9,8v46.9c0,4.4,4,8,9,8h91.2l-34.7,34.7c-3,3-2.8,7.9.3,11.1l33.2,33.2c3.1,3.1,8.1,3.3,11.1.3l71.9-71.9h0l33.2-33.2h0l.3-.3c1.4-1.4,2.1-3.3,2.1-5.2v-.2h0Z"/>
  <path class="cls-1" d="M155.6,254.4h-80.6V75.5h80.6c6.6,0,12-5.4,12-12V12.5c0-6.6-5.4-12-12-12h-79.2c-1.1-.3-2.2-.5-3.4-.5H12C5.4,0,0,5.4,0,12v305c0,6.6,5.4,12,12,12h39c1,.3,2,.4,3,.4h101.6c6.6,0,12-5.4,12-12v-51c0-6.6-5.4-12-12-12Z"/>
</svg>