<svg width="25" height="25" viewBox="0 0 25 25" fill="none" xmlns="http://www.w3.org/2000/svg">
<g clip-path="url(#clip0_49_844)">
<path d="M6.73001 20.98C5.24001 20.98 4.02001 19.76 4.02001 18.27V5.64999H2.72001C1.23001 5.64999 0.0100098 6.86999 0.0100098 8.35999V22.28C0.0100098 23.77 1.23001 24.99 2.72001 24.99H16.64C18.13 24.99 19.35 23.77 19.35 22.28V20.98H6.73001Z" fill="white"/>
<path d="M22.2899 0H8.36991C6.87991 0 5.65991 1.22 5.65991 2.71V16.63C5.65991 18.12 6.87991 19.34 8.36991 19.34H22.2899C23.7799 19.34 24.9999 18.12 24.9999 16.63V2.71C24.9999 1.22 23.7799 0 22.2899 0ZM19.8999 1.88C20.5499 1.88 21.0899 2.26 21.0899 2.96C21.0899 3.66 20.5499 4.07 19.8999 4.07C19.2499 4.07 18.7499 3.68 18.7499 2.96C18.7499 2.24 19.2499 1.88 19.8999 1.88ZM20.9199 4.76V11.17H18.8799V4.76H20.9199ZM7.73991 3.87H14.8799C15.1299 3.87 15.3299 4.27 15.3299 4.76C15.3299 5.25 15.1299 5.65 14.8799 5.65H7.73991C7.48991 5.65 7.28991 5.25 7.28991 4.76C7.28991 4.27 7.48991 3.87 7.73991 3.87ZM7.73991 8.71H14.8799C15.1299 8.71 15.3299 9.11 15.3299 9.6C15.3299 10.09 15.1299 10.49 14.8799 10.49H7.73991C7.48991 10.49 7.28991 10.09 7.28991 9.6C7.28991 9.11 7.48991 8.71 7.73991 8.71ZM22.4699 15.33H8.17991C7.68991 15.33 7.28991 14.93 7.28991 14.44C7.28991 13.95 7.68991 13.55 8.17991 13.55H22.4699C22.9599 13.55 23.3599 13.95 23.3599 14.44C23.3599 14.93 22.9599 15.33 22.4699 15.33Z" fill="white"/>
</g>
<defs>
<clipPath id="clip0_49_844">
<rect width="25" height="25" fill="white"/>
</clipPath>
</defs>
</svg>
