<svg width="22" height="20" viewBox="0 0 22 20" fill="none" xmlns="http://www.w3.org/2000/svg">
<path d="M8.2988 0.794186C8.03959 1.65583 7.59307 2.70346 7 3L8 4.5H13C13.6667 4 14.9 3 14.5 3C14.1783 3 13.6194 1.70619 13.2395 0.679496C13.0901 0.275811 12.7097 0 12.2792 0H9.3198C8.84312 0 8.43613 0.337714 8.2988 0.794186Z" fill="white"/>
<path d="M11 16C14.3137 16 17 13.3137 17 10C17 6.68629 14.3137 4 11 4C7.68629 4 5 6.68629 5 10C5 13.3137 7.68629 16 11 16Z" stroke="white" stroke-width="4"/>
<path d="M8.2988 18.7058C8.03959 17.8442 7.59307 16.7965 7 16.5L8 15H13C13.6667 15.5 14.9 16.5 14.5 16.5C14.1783 16.5 13.6194 17.7938 13.2395 18.8205C13.0901 19.2242 12.7097 19.5 12.2792 19.5H9.3198C8.84312 19.5 8.43613 19.1623 8.2988 18.7058Z" fill="white"/>
<path d="M17.8741 16.2876C16.9939 16.1008 15.8606 15.9888 15.3155 16.3664L14.4807 14.7685L16.8838 10.3839C17.6427 10.0396 19.1124 9.43862 18.9202 9.78939C18.7655 10.0715 19.6315 11.1835 20.3492 12.0101C20.6315 12.3351 20.6905 12.8013 20.4836 13.1787L19.0612 15.7739C18.8321 16.1919 18.3404 16.3865 17.8741 16.2876Z" fill="white"/>
<path d="M17.8741 3.52065C16.9939 3.70746 15.8606 3.81942 15.3155 3.44186L14.4807 5.03972L16.8838 9.42436C17.6427 9.76866 19.1124 10.3696 18.9202 10.0188C18.7655 9.73669 19.6315 8.62472 20.3492 7.79815C20.6315 7.47315 20.6905 7.00696 20.4836 6.6295L19.0612 4.03429C18.8321 3.61628 18.3404 3.42168 17.8741 3.52065Z" fill="white"/>
<path d="M3.71434 3.52065C4.59453 3.70746 5.72783 3.81942 6.27291 3.44186L7.10768 5.03972L4.70457 9.42436C3.94569 9.76866 2.47599 10.3696 2.66824 10.0188C2.82287 9.73669 1.95692 8.62472 1.23916 7.79815C0.956941 7.47315 0.897929 7.00696 1.10481 6.6295L2.52718 4.03429C2.75629 3.61628 3.24805 3.42168 3.71434 3.52065Z" fill="white"/>
<path d="M3.71434 16.2876C4.17527 16.1897 4.70561 16.1124 5.18454 16.1152C5.78603 16.1187 6.51892 15.8955 6.79744 15.3623L6.85987 15.2428C7.01469 14.9465 7.01116 14.5924 6.85046 14.2992L4.86478 10.6762C4.76078 10.4864 4.59846 10.3349 4.39995 10.2488C3.61235 9.90729 2.49941 9.48134 2.66824 9.78939C2.82287 10.0715 1.95692 11.1835 1.23916 12.0101C0.956941 12.3351 0.897929 12.8013 1.10481 13.1787L2.52718 15.7739C2.75629 16.1919 3.24805 16.3865 3.71434 16.2876Z" fill="white"/>
</svg>
