<svg width="23" height="23" viewBox="0 0 23 23" fill="none" xmlns="http://www.w3.org/2000/svg">
<path d="M1.50764 8.9064L9.00764 0.906403C10.5466 -0.73518 12.3155 0.22241 13.0076 0.906403C14.6743 2.23974 18.0076 6.4064 21.0076 8.9064C23.4076 12.1064 21.0076 12.9064 19.5076 12.9064V19.9064C19.5076 21.1064 18.1743 21.7397 17.5076 21.9064H14.0076C13.2076 21.9064 13.0076 21.2397 13.0076 20.9064V15.9064C13.0076 15.5064 12.341 15.0731 12.0076 14.9064H10.0076C9.20763 14.9064 9.00763 15.9064 9.00763 16.4064V20.9064C9.00763 21.3064 8.34096 21.7397 8.00763 21.9064C7.50763 22.2397 6.22638 21.9064 5.00763 21.9064C2.60763 21.9064 2.34097 20.5731 2.50764 19.9064V12.9064C-1.49236 12.5064 0.174305 10.0731 1.50764 8.9064Z" fill="#D9D9D9"/>
</svg>
