<svg xmlns="http://www.w3.org/2000/svg" width="17.036" height="19" viewBox="0 0 17.036 19"><defs><style>.a{fill:#008bf1;}</style></defs><g transform="translate(-629.494 -74.194)"><path class="a" d="M642.266,79.661l-.015,0c0-.463,0-.933-.01-1.4a3.884,3.884,0,0,0-.987-2.572,4.253,4.253,0,0,0-5.429-.873,3.953,3.953,0,0,0-2.041,3.493c-.009.453-.009.9-.009,1.348h-.011a4.835,4.835,0,0,0-4.269,4.916V88.2c0,.107,0,.215.009.318a4.851,4.851,0,0,0,4.855,4.65l.174,0q1.694.028,3.447.028c1.149,0,2.316-.009,3.492-.028h.3a4.854,4.854,0,0,0,4.753-4.955V84.595a1.716,1.716,0,0,0,0-.327A4.835,4.835,0,0,0,642.266,79.661Zm-.8,12.138q-1.757.028-3.5.028t-3.456-.028l-.159,0a3.493,3.493,0,0,1-3.5-3.345v-3.9a3.5,3.5,0,0,1,3.427-3.576.94.94,0,0,1,.117-.007c.042,0,.086,0,.15.007q1.7-.028,3.442-.028t3.518.028l.154,0a3.5,3.5,0,0,1,3.5,3.344v3.9a3.871,3.871,0,0,1-.029.474,3.506,3.506,0,0,1-3.4,3.1Zm-3.652-16.145A2.784,2.784,0,0,1,640.76,77.9a3.811,3.811,0,0,1,.048.56c.009.386,0,.764.009,1.148-.944-.019-1.888-.028-2.825-.028s-1.865.009-2.775.028h0c0-.376,0-.753-.009-1.129A2.78,2.78,0,0,1,637.818,75.654Z" transform="translate(0 0)"/><path class="a" d="M642.665,86.292a.7.7,0,0,0-.721.693.712.712,0,1,0,.721-.693Z" transform="translate(-0.633 -0.615)"/><path class="a" d="M639.855,86.292a.7.7,0,0,0-.731.7.717.717,0,1,0,.731-.7Z" transform="translate(-0.49 -0.615)"/><path class="a" d="M637.075,86.292a.7.7,0,0,0-.731.693.708.708,0,0,0,.693.74.717.717,0,1,0,.038-1.433Z" transform="translate(-0.348 -0.615)"/><path class="a" d="M634.285,86.292a.705.705,0,0,0-.721.7.717.717,0,1,0,1.433.019A.707.707,0,0,0,634.285,86.292Z" transform="translate(-0.207 -0.615)"/></g></svg>